PathFileType   4   (X/Y/Z)																																																																																																																	
DataRate	CameraRate	NumFrames	NumMarkers	Units	OrigDataRate	OrigDataStartFrame	OrigNumFrames																																																																																																										
120	120	11	37	mm	120	40	106																																																																																																										
Frame#	Time	midhip	hip_r	hip_l	knee_r	knee_l	ankle_r	ankle_l	midasis	asis_r	asis_l	psis_r	psis_l	epicondLat_r	epicondLat_l	epicondMed_r	epicondMed_l	malleolusLat_r	malleolusLat_l	malleolusMedv_r	malleolusMedv_l	neck	subclavicle_r	subclavicle_l	sternalnotch	xyphoidprocess	thighwand_r	thighwand_l	upperleg1_r	upperleg1_l	upperleg2_r	upperleg2_l	shankwand_r	shankwand_l	lowerleg1_r	lowerleg1_l	toe_r	toe_l																																																																											
 	 	X1	Y1	Z1	X2	Y2	Z2	X3	Y3	Z3	X4	Y4	Z4	X5	Y5	Z5	X6	Y6	Z6	X7	Y7	Z7	X8	Y8	Z8	X9	Y9	Z9	X10	Y10	Z10	X11	Y11	Z11	X12	Y12	Z12	X13	Y13	Z13	X14	Y14	Z14	X15	Y15	Z15	X16	Y16	Z16	X17	Y17	Z17	X18	Y18	Z18	X19	Y19	Z19	X20	Y20	Z20	X21	Y21	Z21	X22	Y22	Z22	X23	Y23	Z23	X24	Y24	Z24	X25	Y25	Z25	X26	Y26	Z26	X27	Y27	Z27	X28	Y28	Z28	X29	Y29	Z29	X30	Y30	Z30	X31	Y31	Z31	X32	Y32	Z32	X33	Y33	Z33	X34	Y34	Z34	X35	Y35	Z35	X36	Y36	Z36	X37	Y37	Z37	

	40	0.44167	981.702	868.015	-263.129	984.33	857.021	-211.375	976.485	857.844	-317.652	1197.88	485.724	-195.073	850.691	466.801	-328.326	1289.448	79.452	-183.243	658.408	92.311	-313.975	1061.603	952.064	-269.774	1069.223	951.265	-166.536	1053.983	952.863	-373.012	868.275	980.678	-205.646	858.36	987.26	-289.916	1201.51	490.411	-135.869	857.213	466.317	-387.466	1178.606	479.638	-250.959	839.114	472.659	-280.279	1283.892	79.295	-145.652	656.148	91.96	-353.408	1285.663	84.798	-214.253	668.176	98.743	-284.361	942.068	1437.868	-272.306	1034.303	1365.205	-184.576	1038.662	1361.251	-342.455	1024.333	1364.916	-267.858	1054.313	1162.145	-268.702	1177.689	588.501	-54.369	1028.744	548.445	-332.928	1167.863	649.695	-127.612	975.511	627.507	-375.043	1201.893	576.15	-148.793	940.671	547.774	-371.45	1276.612	159.395	-80.054	800.81	148.286	-310.581	1249.071	209.79	-140.496	761.076	220.006	-324.972	1407.62	86.515	-189.179	775.834	42.32	-322.355
	41	0.45	996.384	866.616	-262.697	999.327	855.171	-211.073	990.227	856.249	-317.248	1213.605	484.437	-194.912	859.439	466.342	-328.697	1313.545	79.893	-183.161	660.245	95.343	-314.801	1076.062	950.22	-270.169	1084.894	949.174	-167.128	1067.231	951.265	-373.21	883.482	979.051	-203.778	872.621	985.766	-287.833	1217.39	489.205	-135.724	864.975	466.225	-387.939	1192.941	477.846	-250.587	848.348	472.74	-279.86	1308.105	79.641	-145.553	657.877	95.137	-354.229	1309.371	85.281	-213.959	670.12	101.734	-285.215	955.779	1436.008	-271.313	1048.27	1363.46	-183.69	1052.314	1359.507	-341.443	1038.133	1363.158	-266.885	1068.347	1160.422	-267.779	1193.797	587.069	-54.118	1038.309	545.914	-335.658	1183.309	648.015	-127.209	985.312	625.882	-376.556	1217.208	574.361	-148.716	949.337	546.676	-372.616	1299.347	159.752	-80.007	803.514	148.783	-311.651	1270.653	209.66	-140.21	765.2	221.292	-325.839	1431.65	88.726	-189.739	776.424	42.515	-322.713
	42	0.45833	1011.222	865.157	-262.175	1014.494	853.381	-210.661	1004.223	854.619	-316.728	1229.272	483.274	-194.879	868.855	465.759	-329.019	1335.083	79.953	-183.54	662.366	98.64	-315.751	1090.699	948.41	-270.469	1100.659	947.21	-167.615	1080.739	949.611	-373.323	898.824	977.441	-202.031	887.115	984.225	-285.924	1233.279	488.122	-135.713	873.383	466.058	-388.346	1208.292	476.734	-250.643	858.498	472.367	-279.696	1329.7	79.599	-145.925	659.92	98.591	-355.176	1331.017	85.449	-214.221	672.291	104.978	-286.185	969.54	1434.261	-270.235	1062.299	1361.807	-182.512	1066.131	1357.865	-340.358	1052.047	1361.493	-265.737	1082.547	1158.8	-266.683	1210.051	585.752	-54.018	1048.47	543.382	-338.413	1198.815	646.808	-126.92	995.733	624.277	-377.922	1232.949	573.075	-148.834	958.796	545.54	-373.805	1319.865	159.614	-80.327	806.409	149.294	-312.75	1290.564	209.27	-140.385	769.736	222.65	-326.722	1453.273	90.013	-190.206	777.099	42.696	-323.059
	43	0.46667	1026.285	863.695	-261.531	1029.875	851.687	-210.146	1018.559	852.968	-316.106	1244.946	482.223	-194.971	878.935	465.08	-329.304	1354.355	79.566	-184.393	664.836	102.213	-316.796	1105.561	946.676	-270.672	1116.528	945.434	-167.977	1094.595	947.917	-373.367	914.307	975.873	-200.414	901.852	982.633	-284.196	1249.211	487.134	-135.828	882.492	465.821	-388.693	1222.21	476.59	-251.259	869.611	471.401	-279.835	1348.883	79.067	-146.792	662.319	102.339	-356.215	1350.324	85.189	-215.151	674.571	108.408	-287.211	983.395	1432.58	-269.01	1076.568	1360.318	-181.3	1080.067	1356.37	-339.269	1066.136	1359.972	-264.559	1097.119	1157.353	-265.558	1226.393	584.556	-54.079	1059.284	540.888	-341.055	1215.184	646.043	-126.548	1006.735	622.736	-378.942	1248.48	572.16	-149.111	969.118	544.487	-374.938	1338.166	158.883	-81.047	809.562	149.841	-313.914	1308.636	208.438	-141.054	774.533	224.044	-327.606	1472.5	90.137	-190.606	777.852	42.864	-323.38
	44	0.475	1041.634	862.313	-260.754	1045.474	850.123	-209.507	1033.256	851.308	-315.367	1260.672	481.257	-195.188	889.71	464.338	-329.569	1370.875	78.751	-185.687	667.725	106.07	-317.904	1120.653	945.047	-270.762	1132.49	943.899	-168.189	1108.815	946.196	-373.335	929.919	974.362	-198.922	916.822	981.004	-282.628	1265.205	486.196	-136.067	892.377	465.53	-388.997	1235.192	477.245	-252.361	881.272	470.282	-279.985	1365.328	78.12	-148.099	665.119	106.402	-357.316	1367.258	84.447	-216.672	677.313	112.168	-288.33	997.271	1430.973	-267.736	1090.824	1358.957	-179.997	1094.064	1355.001	-338.098	1080.251	1358.572	-263.302	1111.794	1156.04	-264.336	1242.772	583.457	-54.296	1070.8	538.46	-343.483	1232.242	645.505	-126.066	1018.359	621.267	-379.66	1263.924	571.466	-149.502	979.992	543.388	-375.898	1354.343	157.602	-82.156	813.12	150.481	-315.206	1324.75	207.153	-142.185	779.892	225.588	-328.595	1489.363	88.751	-190.977	778.705	43.024	-323.653
	45	0.48333	1057.232	861.007	-259.811	1061.261	848.717	-208.73	1048.302	849.663	-314.504	1276.29	480.382	-195.488	901.216	463.55	-329.802	1385.037	77.644	-187.277	671.132	110.215	-319.05	1135.957	943.547	-270.719	1148.513	942.631	-168.232	1123.4	944.463	-373.205	945.634	972.939	-197.552	932.016	979.362	-281.209	1281.117	485.325	-136.391	903.094	465.19	-389.25	1251.104	478.256	-253.883	893.632	469.032	-279.977	1379.376	76.881	-149.709	668.391	110.801	-358.451	1382.002	83.097	-218.633	681.058	116.344	-289.602	1011.204	1429.421	-266.479	1105.127	1357.684	-178.656	1108.198	1353.739	-336.8	1094.459	1357.265	-261.968	1126.658	1154.836	-263.04	1259.125	582.426	-54.66	1083.059	536.117	-345.641	1249.025	645.144	-125.78	1030.689	619.746	-380.215	1280.304	571.21	-149.998	991.565	542.109	-376.65	1368.516	155.934	-83.578	817.279	151.282	-316.682	1339.159	205.453	-143.766	785.968	227.259	-329.669	1503.824	85.547	-191.353	779.69	43.167	-323.857
	46	0.49167	1073.095	859.877	-258.698	1077.184	847.493	-207.802	1063.651	848.071	-313.508	1291.85	479.703	-195.854	913.498	462.726	-329.987	1396.436	76.36	-188.971	675.165	114.652	-320.221	1151.445	942.19	-270.512	1164.558	941.63	-168.088	1138.332	942.75	-372.936	961.415	971.66	-196.314	947.403	977.756	-279.946	1296.948	484.598	-136.776	914.69	464.804	-389.439	1268.424	479.86	-255.883	906.892	467.769	-279.649	1390.757	75.529	-151.407	672.244	115.548	-359.603	1394.722	81.048	-220.861	685.488	120.738	-290.86	1025.194	1427.937	-265.043	1119.588	1356.352	-177.284	1122.472	1352.615	-335.472	1108.816	1355.999	-260.6	1141.744	1153.689	-261.968	1275.362	581.482	-55.134	1096.112	533.885	-347.508	1265.727	645.039	-125.505	1043.76	618.148	-380.686	1297.145	571.314	-150.604	1004.012	540.781	-377.164	1380.749	154.127	-85.164	822.18	152.282	-318.351	1352.343	203.487	-145.85	792.598	228.975	-330.711	1515.802	80.556	-191.791	780.834	43.288	-323.991
	47	0.5	1089.343	859.184	-257.459	1093.184	846.478	-206.712	1079.246	846.591	-312.367	1307.423	479.386	-196.31	926.637	461.878	-330.113	1405.536	75.081	-190.574	679.96	119.378	-321.409	1167.093	940.994	-270.108	1180.598	940.885	-167.738	1153.588	941.104	-372.479	977.216	970.603	-195.219	962.926	976.264	-278.858	1312.732	484.158	-137.24	927.234	464.384	-389.557	1286.341	481.535	-257.829	921.058	466.57	-279.132	1399.861	74.237	-153.009	676.808	120.647	-360.762	1405.182	78.714	-223.019	690.582	125.283	-292.08	1039.313	1426.621	-263.403	1134.057	1355.053	-175.81	1136.863	1351.61	-334.146	1123.239	1354.821	-259.191	1156.715	1152.604	-260.948	1291.43	580.719	-55.667	1110.044	531.81	-349.106	1282.406	644.956	-125.245	1057.66	616.591	-381.05	1314.12	571.554	-151.098	1017.384	539.509	-377.492	1391.196	152.426	-86.76	827.95	153.506	-320.222	1364.528	201.88	-148.279	799.875	230.811	-331.777	1525.357	74.183	-192.372	782.17	43.378	-324.058
	48	0.50833	1105.658	858.742	-256.103	1109.198	845.71	-205.462	1095.026	845.293	-311.084	1323.085	479.54	-196.92	940.723	461.008	-330.182	1412.557	73.945	-191.961	685.67	124.364	-322.604	1182.865	939.994	-269.481	1196.594	940.397	-167.164	1169.137	939.59	-371.798	992.984	969.849	-194.286	978.523	974.964	-277.959	1328.538	484.103	-137.846	940.791	463.934	-389.61	1305.946	482.938	-259.333	936.315	464.975	-278.801	1406.961	73.17	-154.384	682.227	126.087	-361.916	1412.425	76.594	-224.554	696.571	130.071	-293.365	1053.671	1425.591	-261.707	1148.591	1354.068	-174.262	1151.363	1350.803	-332.775	1137.752	1353.908	-257.726	1171.579	1151.752	-259.718	1307.352	580.272	-56.226	1124.919	529.953	-350.499	1299.032	644.941	-125.189	1072.413	615.082	-381.238	1331.555	572.061	-151.281	1031.832	538.186	-377.76	1400.192	150.99	-88.254	834.722	154.973	-322.349	1375.175	201.185	-150.503	808.034	232.874	-332.907	1532.745	67.083	-193.139	783.737	43.424	-324.056
	49	0.51667	1121.756	858.387	-254.664	1125.171	845.242	-204.048	1110.925	844.257	-309.656	1338.762	480.198	-197.699	955.802	460.127	-330.201	1417.965	73.006	-193.111	692.459	129.559	-323.81	1198.716	939.247	-268.615	1212.511	940.2	-166.351	1184.922	938.293	-370.879	1008.679	969.469	-193.534	994.133	973.936	-277.256	1344.32	484.478	-138.614	955.4	463.467	-389.606	1324.779	485.185	-260.922	952.721	463.036	-278.524	1412.517	72.37	-155.509	688.651	131.834	-363.06	1416.397	74.788	-225.319	703.506	135.122	-294.698	1068.154	1424.984	-259.967	1163.183	1353.503	-172.631	1165.92	1350.41	-331.38	1152.324	1353.417	-256.208	1186.424	1151.309	-258.43	1323.121	580.236	-56.778	1140.721	528.375	-351.705	1316.238	645.557	-125.009	1087.983	613.678	-381.279	1348.879	572.974	-151.384	1047.324	536.821	-377.935	1408.069	149.879	-89.586	842.564	156.639	-324.796	1383.868	201.143	-152.262	817.262	235.135	-334.008	1538.281	60.064	-194.023	785.562	43.424	-324.015
	50	0.525	1137.567	858.153	-253.177	1141.091	845.136	-202.451	1126.883	843.556	-308.057	1354.303	481.297	-198.619	971.909	459.212	-330.192	1421.789	72.267	-194.027	700.489	134.879	-325.046	1214.605	938.823	-267.513	1228.355	940.352	-165.303	1200.854	937.294	-369.723	1024.267	969.513	-192.968	1009.707	973.248	-276.742	1359.951	485.229	-139.518	971.078	462.967	-389.568	1342.279	488.223	-262.678	970.32	461.127	-277.973	1416.634	71.839	-156.381	696.236	137.816	-364.206	1419.196	73.563	-225.864	711.684	140.351	-296.06	1082.657	1424.853	-258.225	1177.736	1353.287	-170.962	1180.582	1350.545	-329.988	1166.932	1353.371	-254.682	1201.288	1151.311	-257.331	1338.665	580.637	-57.283	1157.43	527.138	-352.76	1333.477	646.866	-124.773	1104.375	612.518	-381.18	1365.726	574.3	-151.647	1063.814	535.64	-377.906	1415.021	149.068	-90.716	851.515	158.42	-327.625	1391.542	201.335	-153.482	827.704	237.493	-335.168	1542.265	53.924	-194.902	787.631	43.367	-323.974
